# xmcd CD database file
#
# Track frame offsets:
#	150
#	16137
#	35065
#	53372
#
# Disc length: 923 seconds
#
# Revision: 0
# Processed by: cddbd v1.5.1PL0 Copyright (c) Steve Scherf et al.
# Submitted via: CDex 1.51
#
DISCID=24039904
DTITLE=Fleming Pie - Alone Again
DYEAR=2000
DGENRE=JPop
TTITLE0=Alone Again
TTITLE1=Angelica
TTITLE2=So Blue
TTITLE3=Alone Again (Karaoke)
EXTD=YEAR: 2000
EXTT0=
EXTT1=
EXTT2=
EXTT3=
PLAYORDER=
